<?xml version="1.0" ?><svg id="icon" fill="#fff"  viewBox="0 0 32 32" xmlns="http://www.w3.org/2000/svg"><defs><style>.cls-1{fill:none;}</style></defs><title/><path d="M24,21H21a2,2,0,0,1-2-2V13a2,2,0,0,1,2-2h3a2,2,0,0,1,2,2v6A2,2,0,0,1,24,21Zm-3-8v6h3V13Z"/><path d="M15,21H10V19h5V17H12a2,2,0,0,1-2-2V13a2,2,0,0,1,2-2h5v2H12v2h3a2,2,0,0,1,2,2v2A2,2,0,0,1,15,21Z"/><rect height="10" width="2" x="6" y="11"/><path d="M28,6H4A2,2,0,0,0,2,8V24a2,2,0,0,0,2,2H28a2,2,0,0,0,2-2V8A2,2,0,0,0,28,6ZM4,24V8H28V24Z"/><rect class="cls-1" data-name="&lt;Transparent Rectangle&gt;" height="32" id="_Transparent_Rectangle_" width="32"/></svg>